<?xml version="1.0" encoding="UTF-8"?><svg id="Layer_2" xmlns="http://www.w3.org/2000/svg" viewBox="0 0 320 57.38"><defs><style>.cls-1{fill:#21201e;}.cls-1,.cls-2{stroke-width:0px;}.cls-2{fill:#784d2a;}</style></defs><g id="Header"><path class="cls-1" d="M115.15,31.28h-3.2l-.08.21.91.83,6.99,9.24-6.91,10.24c-1.05,1.58-2.2,2.7-3.45,3.37-1.25.67-2.7,1-4.37,1-.31,0-.65-.01-1.04-.04-.39-.03-.74-.08-1.04-.17v-3.37h.42c1,0,1.87-.26,2.6-.79.74-.53,1.46-1.29,2.18-2.29l5.74-8.19-7.82-10.03h-3v-3.37h12.07v3.37ZM129.37,31.28h-2.91v21.3h3.2v3.37h-11.65v-3.37h3.2v-21.3h-2.87v-3.37h11.02v3.37ZM144.6,31.28h-3l-7.82,10.03,5.74,8.19c.72,1,1.45,1.76,2.18,2.29.74.53,1.6.79,2.6.79h.42v3.37c-.31.08-.65.14-1.04.17-.39.03-.74.04-1.04.04-1.66,0-3.12-.33-4.37-1-1.25-.66-2.4-1.79-3.45-3.37l-6.91-10.24,6.99-9.24.92-.83-.08-.21h-3.16v-3.37h12.02v3.37Z"/><path class="cls-1" d="M169.07,36.14h-4.33v-4.87h-9.19v8.49h9.19v3.5h-9.19v9.32h9.36v-5.41h4.33v8.78h-21.8v-3.37h2.87v-21.3h-2.87v-3.37h21.63v8.24Z"/><path class="cls-1" d="M181.48,52.58h4.12v3.37h-12.23v-3.37h2.87v-21.3h-2.87v-3.37h11.61c1.69,0,3.25.16,4.66.48,1.41.32,2.63.82,3.64,1.52,1.01.69,1.8,1.59,2.37,2.68.57,1.1.85,2.42.85,3.97s-.29,2.95-.87,4.1c-.58,1.15-1.39,2.1-2.41,2.85-1.03.75-2.24,1.3-3.64,1.64-1.4.34-2.92.52-4.56.52h-3.54v6.91ZM184.47,42.3c2.36,0,4.05-.51,5.08-1.54,1.03-1.03,1.54-2.41,1.54-4.16s-.51-3.07-1.54-3.97c-1.03-.9-2.73-1.35-5.12-1.35h-2.95v11.03h2.99Z"/><path class="cls-1" d="M227.29,55.95h-11.94v-3.37h3.91l-1.91-4.87h-11.36l-1.87,4.87h3.91v3.37h-11.32v-3.37h2.46l8.2-21.18h-3.91v-3.49h11.61l9.78,24.67h2.45v3.37ZM207.15,44.47h8.94l-3.95-10.32-.42-1.58h-.25l-.42,1.58-3.91,10.32Z"/><path class="cls-1" d="M249.84,29.82c1.69,1.27,2.54,2.98,2.54,5.12,0,1.5-.35,2.75-1.06,3.74-.71,1-1.55,1.71-2.52,2.12v.25c.67.22,1.3.53,1.91.91.61.39,1.15.87,1.62,1.46.47.58.85,1.27,1.14,2.06.29.79.44,1.67.44,2.64,0,2.44-.88,4.35-2.64,5.74-1.76,1.39-4.22,2.08-7.39,2.08h-13.98v-3.37h2.87v-21.3h-2.87v-3.37h12.48c3.27,0,5.76.64,7.45,1.91ZM241.52,39.97c1.91,0,3.36-.41,4.33-1.23.97-.82,1.46-1.91,1.46-3.27s-.49-2.4-1.46-3.12c-.97-.72-2.41-1.08-4.33-1.08h-3.49v8.7h3.49ZM242.44,52.58c2.11,0,3.65-.39,4.62-1.19.97-.79,1.46-1.94,1.46-3.43s-.48-2.64-1.44-3.52c-.96-.87-2.5-1.31-4.64-1.31h-4.41v9.44h4.41Z"/><path class="cls-1" d="M260.62,52.58v-21.3h-2.87v-3.37h11.61v3.37h-3.49v8.49h12.81v-8.49h-3.49v-3.37h11.61v3.37h-2.87v21.3h2.87v3.37h-11.61v-3.37h3.49v-9.32h-12.81v9.32h3.49v3.37h-11.61v-3.37h2.87Z"/><path class="cls-1" d="M320,55.95h-11.94v-3.37h3.91l-1.91-4.87h-11.36l-1.87,4.87h3.91v3.37h-11.32v-3.37h2.46l8.2-21.18h-3.91v-3.49h11.61l9.78,24.67h2.45v3.37ZM299.86,44.47h8.94l-3.95-10.32-.42-1.58h-.25l-.42,1.58-3.91,10.32Z"/><path class="cls-1" d="M107.31,17.09c-.95-.33-1.77-.83-2.46-1.49-.69-.66-1.24-1.47-1.64-2.42s-.6-2.05-.6-3.29c0-1.11.17-2.13.5-3.07.33-.94.82-1.75,1.45-2.44.64-.69,1.42-1.22,2.36-1.61.94-.38,2.01-.58,3.23-.58.8,0,1.58.09,2.33.25.75.17,1.44.4,2.06.7v4.3h-1.35v-3.53c-.4-.16-.87-.29-1.41-.39-.54-.1-1.08-.14-1.63-.14-.98,0-1.83.15-2.56.45-.73.3-1.34.73-1.83,1.29-.49.56-.85,1.22-1.1,1.98-.24.77-.37,1.63-.37,2.57,0,1.15.17,2.15.51,2.98.34.83.8,1.52,1.37,2.06.58.54,1.25.94,2.01,1.2.76.26,1.56.39,2.41.39.59,0,1.23-.07,1.93-.21s1.37-.37,2.02-.68v1.29c-.56.25-1.19.46-1.89.62-.69.16-1.45.24-2.26.24-1.11,0-2.14-.17-3.08-.5Z"/><path class="cls-1" d="M116.27,16.24h1.55l4.77-12.6h-2.4v-1.22h4.75l5.19,13.82h1.55v4.13h-1.35v-2.99h-12.71v2.99h-1.35v-4.13ZM128.56,16.24l-4.41-11.73-.16-.71h-.13l-.16.71-4.41,11.73h9.27Z"/><path class="cls-1" d="M136.45,16.24h2.4v1.13h-5.63v-1.13h1.73V3.55h-1.73v-1.13h5.55c.81,0,1.58.07,2.29.22.71.15,1.32.4,1.84.75s.92.82,1.22,1.39c.3.57.44,1.27.44,2.12s-.16,1.61-.47,2.21-.73,1.09-1.26,1.46-1.15.65-1.84.81-1.43.24-2.2.24h-2.33v4.61ZM138.54,10.49c1.57,0,2.69-.3,3.37-.91.68-.61,1.02-1.5,1.02-2.68s-.34-2.02-1.02-2.55c-.68-.53-1.8-.8-3.37-.8h-2.08v6.94h2.08Z"/><path class="cls-1" d="M160.6,3.55h-1.31l-4.79,9.98c-.27.55-.53,1.06-.79,1.53-.26.47-.57.88-.92,1.22-.35.34-.78.61-1.26.81s-1.09.3-1.82.3h-.46c-.13,0-.28,0-.44-.02v-1.13h.55c.41,0,.78-.03,1.11-.1.33-.07.62-.18.89-.35.27-.17.51-.39.73-.67.22-.27.44-.62.64-1.03l-5.37-10.54h-1.31v-1.13h5.32v1.13h-2.35l-.04.11.24.29,4.26,8.58,4.06-8.58.27-.29-.07-.11h-2.35v-1.13h5.21v1.13Z"/><path class="cls-1" d="M167.12,3.55h-2.08l-.04.11.4.27,4.75,5.66-4.39,5.83c-.52.69-1.04,1.2-1.58,1.53-.53.33-1.15.49-1.86.49-.3,0-.53-.02-.71-.07v-1.13h.22c.46,0,.91-.12,1.36-.38s.91-.69,1.36-1.31l3.77-5.01-5.06-5.99h-1.66v-1.13h5.52v1.13ZM174.33,3.55h-1.82v12.69h1.95v1.13h-5.41v-1.13h1.95V3.55h-1.82v-1.13h5.15v1.13ZM181.92,3.55h-1.66l-5.06,5.99,3.75,5.01c.44.59.89,1.02,1.35,1.29.46.27.92.4,1.4.4h.22v1.13c-.18.04-.41.07-.71.07-.71,0-1.33-.16-1.86-.49-.53-.33-1.06-.83-1.57-1.53l-4.39-5.83,4.75-5.66.4-.27-.04-.11h-2.08v-1.13h5.52v1.13Z"/><path class="cls-1" d="M194.24,6.48h-1.35v-2.93h-6.1v5.55h6.1v1.13h-6.1v6.01h6.17v-3.26h1.35v4.39h-10.76v-1.13h1.73V3.55h-1.73v-1.13h10.69v4.06Z"/><path class="cls-1" d="M198.63,16.24V3.55h-1.73v-1.13h5.39v1.13h-2.15v5.55h8.32V3.55h-2.15v-1.13h5.39v1.13h-1.73v12.69h1.73v1.13h-5.39v-1.13h2.15v-6.01h-8.32v6.01h2.15v1.13h-5.39v-1.13h1.73Z"/><path class="cls-1" d="M222.96,16.24h2.15V4h-.13l-.44,1.11-7.12,12.27h-1.93V3.55h-1.73v-1.13h5.39v1.13h-2.15v12.2h.13l.44-1.11,7.12-12.22h3.66v1.13h-1.73v12.69h1.73v1.13h-5.39v-1.13Z"/><path class="cls-1" d="M241.22,6.48h-1.35v-2.93h-6.1v5.55h6.1v1.13h-6.1v6.01h6.17v-3.26h1.35v4.39h-10.76v-1.13h1.73V3.55h-1.73v-1.13h10.69v4.06Z"/><path class="cls-1" d="M250.06,7.15c.34-.79.82-1.45,1.44-2,.62-.55,1.37-.96,2.26-1.24s1.88-.42,2.97-.42h.58v-1.18h-2.11v-1.09h5.72v1.09h-2.11v1.18h.69c1.11,0,2.1.14,2.97.43.87.29,1.61.71,2.22,1.25.61.55,1.07,1.21,1.4,2,.33.78.49,1.67.49,2.66s-.16,1.88-.49,2.67c-.33.79-.79,1.46-1.4,2.01-.61.55-1.35.96-2.22,1.25-.87.29-1.86.43-2.97.43h-.69v1.29h2.11v1.09h-5.72v-1.09h2.11v-1.29h-.58c-1.09,0-2.08-.14-2.97-.43-.89-.29-1.64-.7-2.26-1.24-.62-.54-1.1-1.2-1.44-1.99s-.51-1.69-.51-2.7.17-1.9.51-2.68ZM252.6,13.75c.94.87,2.3,1.31,4.09,1.31h.62V4.62h-.62c-1.79,0-3.15.43-4.09,1.3-.94.86-1.41,2.17-1.41,3.91s.47,3.05,1.41,3.93ZM263.54,5.91c-.94-.87-2.3-1.3-4.09-1.3h-.62v10.45h.62c1.79,0,3.15-.44,4.09-1.31s1.41-2.18,1.41-3.93-.47-3.05-1.41-3.91Z"/><path class="cls-1" d="M273.39,17.05c-.87-.36-1.61-.88-2.21-1.54-.6-.66-1.05-1.47-1.35-2.42-.3-.95-.45-2-.45-3.17s.15-2.22.45-3.17c.3-.95.75-1.75,1.35-2.43.6-.67,1.33-1.19,2.21-1.56.87-.37,1.88-.55,3.04-.55s2.17.18,3.04.55c.87.37,1.61.89,2.21,1.56.6.67,1.05,1.48,1.35,2.43.3.95.46,2,.46,3.17s-.15,2.22-.46,3.17c-.3.95-.75,1.75-1.35,2.42-.6.67-1.34,1.18-2.21,1.54s-1.89.54-3.04.54-2.17-.18-3.04-.54ZM274.02,3.84c-.67.3-1.23.72-1.66,1.27s-.76,1.24-.98,2.04c-.22.81-.32,1.71-.32,2.72s.11,1.91.32,2.72c.21.81.54,1.49.98,2.05s.99,1,1.66,1.3c.67.3,1.48.46,2.41.46s1.71-.15,2.38-.46c.67-.3,1.23-.74,1.68-1.3.44-.56.77-1.25.99-2.05.21-.8.32-1.71.32-2.72s-.11-1.91-.32-2.72c-.21-.8-.54-1.49-.99-2.04-.44-.56-1-.98-1.68-1.27-.67-.3-1.47-.44-2.38-.44s-1.73.15-2.41.44Z"/><path class="cls-1" d="M287.69,16.24V3.55h-1.73v-1.13h5.39v1.13h-2.15v5.55h8.32V3.55h-2.15v-1.13h5.39v1.13h-1.73v12.69h1.73v1.13h-5.39v-1.13h2.15v-6.01h-8.32v6.01h2.15v1.13h-5.39v-1.13h1.73Z"/><path class="cls-1" d="M302.29,16.24h1.55l4.77-12.6h-2.4v-1.22h4.75l5.19,13.82h1.55v4.13h-1.35v-2.99h-12.71v2.99h-1.35v-4.13ZM314.57,16.24l-4.41-11.73-.16-.71h-.13l-.16.71-4.41,11.73h9.27Z"/><path class="cls-2" d="M0,14.51l3.18,5.99c2.26-1.2,5.42-1.2,8.19-1.19h.37s0-6.78,0-6.78h-.37c-3.4,0-7.62,0-11.38,1.99Z"/><path class="cls-2" d="M81.45,12.52h-.37v6.78h.37c2.77,0,5.93,0,8.19,1.19l3.18-5.99c-3.75-1.99-7.98-1.99-11.38-1.99Z"/><path class="cls-2" d="M79.44,50.6c-4.79-.2-8.53-1.65-11.11-4.34-2.89-3-3.85-7-4.17-9.55,3.37-1.2,6.06-2.83,8.12-4.92,5.22-5.33,5.09-12.26,4.99-17.32-.01-.66-.03-1.29-.03-1.91h-6.78c0,.65.01,1.34.03,2.04.09,4.5.18,9.14-3.06,12.44-3.09,3.15-9.01,4.91-17.63,5.27V12.32h-6.78v20c-8.62-.36-14.55-2.12-17.63-5.27-3.23-3.29-3.14-7.94-3.06-12.44.01-.7.03-1.38.03-2.04h-6.78c0,.61-.01,1.25-.03,1.91-.1,5.06-.23,11.99,4.99,17.32,2.05,2.09,4.75,3.72,8.12,4.92-.32,2.55-1.29,6.54-4.17,9.55-2.58,2.68-6.31,4.14-11.11,4.34-.65.03-1.15.57-1.15,1.22v4.34c0,.68.56,1.25,1.25,1.23,6.71-.24,12.07-2.41,15.95-6.47,3.84-4.02,5.3-9.01,5.85-12.54,2.36.38,4.94.63,7.74.74v17.06c0,.68.55,1.22,1.22,1.22h4.33c.68,0,1.22-.55,1.22-1.22v-17.06c2.81-.11,5.39-.35,7.74-.74.55,3.53,2.01,8.52,5.85,12.54,3.88,4.06,9.24,6.24,15.95,6.47.68.02,1.25-.54,1.25-1.23v-4.34c0-.65-.5-1.19-1.15-1.22Z"/><circle class="cls-2" cx="18.97" cy="5.23" r="5.23" transform="translate(6.88 20.75) rotate(-67.5)"/><circle class="cls-2" cx="46.41" cy="5.23" r="5.23"/><circle class="cls-2" cx="73.85" cy="5.23" r="5.23"/></g></svg>